ply
format ascii 1.0
comment VCGLIB generated
element vertex 498
property float x
property float y
property float z
element face 0
property list uchar int vertex_indices
end_header
0.76264 -0.0633837 0.344644 
0.193611 -0.418401 -0.570888 
0.666441 -0.674568 0.614904 
-0.364309 0.690313 -0.0111298 
0.514075 0.216212 -0.420796 
0.522644 -0.758745 0.111938 
0.347873 0.563412 0.324381 
0.65031 -0.760222 0.516915 
0.414446 0.938973 -0.021483 
0.203983 1.09759 0.15885 
-0.0460029 0.498241 0.407583 
-0.671127 0.1539 0.0627905 
0.874364 -0.474038 0.504465 
-0.785317 -0.0271119 -0.407732 
0.299366 -0.600514 0.656304 
-0.956294 -0.43608 0.191083 
0.336933 -0.630459 -0.190635 
0.562332 -0.80803 0.262096 
-0.305241 0.0662001 -0.630154 
0.667981 -0.582024 0.680113 
-0.0997102 0.714544 -0.400161 
-0.348106 0.488602 0.135033 
-0.445264 -0.381725 0.292205 
0.482644 -0.0219216 0.517242 
-0.41178 0.0351692 -0.588286 
-0.177787 0.522105 0.34474 
-0.826948 -0.462706 0.256524 
0.485334 0.550752 -0.244511 
0.482416 -0.141188 -0.578477 
-0.72039 -0.641467 -0.229748 
-0.397271 -0.585281 -0.361339 
-0.828043 0.0284058 0.147871 
0.293089 -0.78416 0.222505 
-0.860579 0.00498684 0.152514 
0.38306 0.128355 -0.65053 
-0.265067 0.811375 0.25067 
0.335716 0.210015 0.366746 
0.413662 0.821683 -0.180721 
0.501414 0.0665696 -0.522982 
0.108092 0.888686 -0.349601 
0.177016 -0.478571 -0.494569 
-0.638271 -0.549855 -0.394946 
-0.089933 0.492081 -0.523733 
-0.435475 -0.594192 -0.346879 
0.412435 -0.698202 -0.044492 
-0.617046 -0.630574 -0.275264 
-0.685177 0.115326 0.119779 
0.0282216 0.497047 0.418663 
0.34295 -0.789287 0.192947 
-0.244217 0.549533 0.282486 
0.112697 -0.404331 -0.608047 
0.298543 0.323334 0.348115 
0.851782 -0.259777 0.194286 
0.126405 0.990749 0.35699 
-0.0231572 1.13079 0.0713952 
-0.0928183 1.02884 -0.173109 
0.165308 0.905774 0.398905 
0.340884 -0.0736988 0.566734 
0.307059 -0.092532 0.575166 
0.128078 -0.657099 0.377673 
0.810828 -0.124758 0.286691 
0.436107 0.87402 -0.0636166 
0.657516 -0.0747489 -0.246565 
-0.236803 -0.54665 -0.421491 
-0.868412 -0.629357 -0.151121 
-1.002 -0.168025 -0.299757 
-0.799107 -0.640553 -0.190613 
0.472047 -0.614018 0.703812 
-0.105894 0.118962 -0.698918 
-0.376289 0.0454936 -0.602213 
0.252954 -0.553496 -0.352111 
0.668999 -0.620086 0.657717 
-0.00841481 -0.16264 -0.753763 
-0.103059 0.841298 -0.324116 
0.843967 -0.213171 0.222771 
-0.763682 0.159033 -0.199424 
-0.958549 -0.584655 -0.0851461 
-0.0838549 0.359383 -0.596817 
0.503229 -0.069228 -0.553825 
-0.252077 0.806519 -0.228695 
0.266036 -0.591531 0.635601 
0.452451 0.801418 -0.106938 
-0.787838 -0.465073 0.266032 
-1.0229 -0.499713 -0.0123431 
0.619686 -0.00850537 0.45032 
-0.899751 -0.0265485 0.156481 
0.582904 -0.000876692 -0.390124 
-0.0509378 1.12371 -0.0037259 
0.0841029 0.50046 0.418436 
0.0925155 -0.377008 -0.640962 
0.178755 0.513715 0.403218 
0.792553 -0.219283 0.0328537 
-1.01955 -0.173164 0.1443 
0.12321 -0.448244 -0.550751 
0.296691 0.870523 -0.291414 
-0.523332 0.21698 0.0895014 
0.120836 -0.313658 0.560439 
-0.963548 -0.147257 -0.332167 
0.607565 -0.813314 0.373196 
0.109402 -0.350275 0.547536 
0.379861 0.84017 -0.221391 
-0.103197 0.875054 -0.301953 
-0.208379 0.915305 0.273183 
-0.777718 0.0611243 0.138994 
-0.0915395 0.526684 -0.504728 
0.637686 -0.394557 0.728764 
0.309527 1.06432 0.0908464 
0.813711 -0.474616 0.102932 
-0.0794292 -0.448132 0.330108 
-0.24977 0.84727 0.260553 
-0.786497 0.0179429 -0.375772 
0.466946 -0.176405 -0.587943 
-0.55279 -0.00533118 0.278252 
0.444411 0.840404 -0.08399 
-0.0966868 1.00071 -0.201674 
-0.655481 0.139941 0.096854 
-0.306285 0.591456 0.191964 
0.0332845 1.10543 0.197501 
0.512941 -0.779516 0.155963 
-0.277508 0.774852 0.239084 
0.511891 0.25131 -0.402712 
0.316902 0.145251 -0.689929 
-0.087797 0.445857 -0.549137 
0.437967 -0.224955 -0.597231 
-0.110479 -0.516112 -0.46878 
0.749175 -0.17178 -0.0588482 
-0.053932 0.0352396 -0.737142 
0.270862 0.535091 0.371582 
-0.468943 -0.627609 0.0311351 
0.517668 0.11022 -0.473939 
-0.0743695 -0.507341 -0.482278 
0.0936513 -0.46363 0.496996 
0.23536 -0.145058 0.58648 
-0.37186 0.4249 0.115831 
-0.388041 0.389063 0.106413 
0.253247 -0.386688 -0.584829 
0.322048 0.246577 0.356489 
-0.727973 -0.46554 0.274883 
0.793437 -0.0974313 0.310301 
0.476179 0.764157 -0.0591631 
-0.070975 0.16524 -0.693647 
0.584794 -0.602955 0.698876 
0.726418 -0.0379851 0.377404 
0.7033 -0.122994 -0.153203 
-0.988783 -0.122048 0.153952 
-0.524023 -0.659376 -0.152242 
-1.09555 -0.300753 -0.0722438 
0.0338321 -0.478375 -0.521424 
-0.323033 0.607038 0.15906 
-0.32591 0.567341 0.162289 
0.18483 0.849906 0.411118 
0.439658 0.00789139 0.495341 
0.515138 0.020925 -0.51598 
0.138668 0.507093 0.411669 
-0.489676 -0.164981 0.334534 
-0.783175 -0.06436 -0.430789 
-0.0101745 -0.490892 -0.505859 
0.422856 0.0352428 0.471006 
-0.182683 -0.533514 -0.441723 
0.113779 0.152015 -0.729315 
0.663572 -0.536003 0.700031 
0.225468 0.694165 0.410234 
0.515849 0.181005 -0.438732 
0.42959 0.616197 0.22916 
-0.471559 -0.602345 -0.333096 
-0.51893 -0.0800979 0.316988 
0.445874 -0.727058 0.0209996 
0.0688372 1.09504 0.224042 
-0.741016 0.179301 -0.118319 
0.47524 0.084143 -0.558261 
-0.00420597 0.877941 -0.341438 
0.437431 0.805088 -0.144978 
0.234976 -0.580931 0.612285 
-0.0201637 -0.12155 -0.756134 
0.706861 -0.630814 0.079209 
-0.451349 0.287839 0.088467 
0.400007 0.96945 0.000385937 
0.484413 0.694036 0.0810376 
-0.726551 0.0915628 0.128596 
-0.742768 -0.303292 -0.502065 
0.596488 -0.722177 0.0911577 
0.431883 -0.614764 0.699789 
0.653979 -0.0127152 0.429634 
-0.491282 -0.651066 -0.0515362 
0.140212 -0.267692 0.57393 
0.0414476 -0.490204 0.422345 
0.53237 -0.609647 0.703968 
-0.0376383 1.12946 0.0338122 
0.786917 -0.524851 0.0912211 
0.274592 0.431204 0.359357 
-0.215187 0.822362 -0.255832 
0.272322 -0.115451 0.581965 
0.549762 -0.164031 0.659696 
0.00829322 1.12163 0.144976 
-1.04872 -0.426241 0.035961 
-0.849758 -0.09902 -0.404185 
-0.347166 -0.42904 0.259784 
-1.07165 -0.22291 -0.209817 
0.499203 -0.0827676 0.585766 
-0.093795 0.575653 -0.477782 
0.902438 -0.391538 0.359031 
-1.05069 -0.264342 0.115405 
-0.760541 -0.226596 -0.493003 
0.233602 0.654997 0.404723 
-0.708323 0.177335 -0.0258158 
-0.361406 0.667605 0.0343009 
-0.782804 0.0917774 -0.307211 
0.147679 -0.541648 0.529577 
-0.251739 0.0815683 -0.650793 
-0.54122 -0.654517 -0.1979 
-0.815703 -0.0869362 -0.42148 
0.476527 0.633989 -0.199832 
0.47725 0.675793 0.116419 
0.357998 0.157983 0.38851 
-0.60635 -0.595553 -0.338982 
0.5087 0.295049 -0.37994 
-0.123007 1.0002 0.272369 
0.505112 0.338699 -0.357017 
0.267608 0.469241 0.367025 
-0.900939 -0.618665 -0.129947 
0.869365 -0.315796 0.217649 
-0.933017 -0.132811 -0.354212 
0.205806 -0.569143 0.587063 
-0.359513 -0.576311 -0.375548 
-0.33762 0.623191 0.125278 
0.069689 -0.467084 -0.533574 
-0.509357 -0.610483 -0.318463 
0.841738 -0.398637 0.127383 
-1.05365 -0.204435 -0.240816 
0.0179804 0.141821 -0.723692 
-0.295786 -0.425693 0.260602 
-0.101641 0.773302 -0.365866 
0.520422 -0.115401 0.617778 
-0.102717 0.90792 -0.278828 
-0.677599 -0.0428117 -0.48281 
0.566392 -0.008604 0.479012 
-0.884943 -0.11245 -0.384599 
0.830261 -0.434776 0.114755 
-1.09096 -0.319839 -0.0371202 
-0.097244 0.653293 -0.434755 
-0.763324 -0.642199 -0.209001 
-0.639645 0.123958 0.129864 
-1.03922 -0.390409 0.0974113 
-0.213255 0.535118 0.31474 
-0.482879 0.0145267 -0.560464 
0.151538 -0.697641 0.343907 
-0.722138 0.181095 -0.0626078 
-1.09641 -0.281305 -0.107527 
0.216345 0.521401 0.392368 
-0.11388 -0.439883 0.310583 
0.453228 0.640143 0.184383 
-0.450244 -0.345099 0.306622 
0.390557 -0.61337 0.69174 
0.238933 -0.768033 0.260112 
0.53791 -0.795615 0.208495 
0.466715 0.657764 0.15098 
0.421934 0.112938 -0.617457 
0.0761482 1.06419 0.278614 
0.269783 -0.569201 -0.319937 
-0.272951 -0.555437 -0.40798 
0.671501 -0.665413 0.0802626 
-0.589073 0.171049 0.0995504 
0.00364274 -0.199694 -0.747919 
-0.230927 0.882208 0.268226 
-0.187557 -0.428268 0.279732 
0.470869 -0.747771 0.070521 
-0.359226 0.716354 -0.0622364 
-0.712671 -0.398804 -0.490439 
0.578138 -0.813301 0.298638 
0.320165 -0.615248 -0.222982 
-0.447317 -0.576076 0.133784 
-0.622272 -0.573892 -0.367787 
-0.0782347 0.254691 -0.652388 
0.720529 -0.141265 -0.117858 
0.210789 -0.512916 -0.431889 
0.012481 -0.478262 0.396881 
-0.946889 -0.0713541 0.157933 
-0.545617 -0.617818 -0.304194 
-1.05511 -0.391694 0.0558541 
-0.149984 -0.433151 0.293582 
-0.533449 -0.0457457 0.302174 
-0.587152 -0.456436 0.277243 
0.150853 0.941 0.385762 
-0.308972 0.774023 -0.170851 
-0.53617 -0.000975965 -0.539552 
-0.647481 -0.461742 0.278774 
-0.171359 0.838019 -0.281775 
0.395652 -0.683381 -0.0771402 
0.0321669 1.08548 0.237435 
0.623292 -0.804636 0.418832 
-0.133966 0.849506 -0.300198 
-0.677362 -0.480293 -0.45281 
-0.752291 -0.26488 -0.499315 
0.596379 -0.261364 0.712913 
0.066682 0.147912 -0.728191 
-0.684354 -0.639003 -0.246266 
0.490679 0.495148 -0.274089 
0.703594 -0.574286 0.662917 
0.241144 0.615986 0.397822 
-0.0259039 -0.464334 0.366561 
-0.505139 -0.65783 -0.0967034 
0.0851853 -0.510431 0.464768 
-0.296607 0.701002 0.212674 
-0.100899 0.95086 -0.245589 
0.739332 -0.593064 0.0813578 
0.763223 -0.549599 0.626245 
0.17806 -0.556539 0.560563 
0.616884 -0.0334928 -0.326601 
-0.0854337 0.393969 -0.577753 
-0.478737 -0.6402 -0.00691902 
-0.785279 0.0645028 -0.335731 
-0.0903941 1.02347 0.26762 
0.593282 -0.815258 0.335706 
0.517092 0.145654 -0.45648 
-0.441438 -0.417527 0.275114 
0.823465 -0.516343 0.574164 
0.501856 0.375286 -0.337683 
-1.08297 -0.338473 -0.00235529 
-0.215856 0.0915308 -0.664016 
0.646464 -0.433802 0.724838 
-0.931224 -0.603799 -0.107857 
-0.00776025 1.12809 0.108607 
0.299828 -0.356924 -0.593299 
0.660061 -0.721639 0.567349 
-1.00081 -0.537981 -0.0417482 
0.205636 -0.750285 0.287315 
0.560137 0.0196508 -0.430287 
-0.0800242 1.08129 -0.105714 
0.35265 0.852106 -0.248278 
-1.05849 -0.338073 0.0835034 
-0.661943 -0.509813 -0.431623 
0.488539 0.718423 0.0330981 
0.184548 0.154983 -0.725222 
-0.0434314 0.871378 -0.333006 
0.853601 -0.329797 0.156837 
0.642109 -0.779933 0.482989 
0.654006 -0.472794 0.717947 
-0.440319 -0.536552 0.184927 
-0.256442 -0.424889 0.26441 
0.429158 -0.712757 -0.0118247 
-0.0565867 1.04444 0.261171 
0.486814 -0.770456 0.125292 
0.56181 -0.741594 0.0997458 
0.451619 0.0980765 -0.586614 
-0.723148 -0.0568464 -0.463522 
-0.0679946 0.12623 -0.708559 
0.351148 0.137827 -0.671925 
-0.577443 -0.628267 -0.282263 
-0.0471494 -0.00280452 -0.745333 
0.633338 -0.0499434 -0.294655 
0.11391 -0.620961 0.404135 
0.263154 1.08457 0.123453 
0.115367 -0.52539 0.495853 
0.158628 -0.434122 -0.561316 
-0.179586 0.101151 -0.676559 
-0.559397 -0.644088 -0.242001 
-0.0301864 0.134215 -0.716377 
0.0489569 0.884485 -0.348192 
0.581671 -0.226615 0.698819 
-0.583411 -0.0147952 -0.520882 
-0.277403 0.569362 0.239222 
0.0675883 -0.338768 -0.678628 
0.480354 0.599317 -0.218521 
0.474482 -0.0456179 0.547902 
-0.447349 0.0248415 -0.574365 
-0.0685109 1.10538 -0.0604736 
0.103659 -0.582823 0.429527 
0.227662 -0.529395 -0.400125 
0.200764 0.795913 0.415486 
-1.05638 -0.301348 0.100265 
0.303388 -0.600011 -0.255329 
0.223608 0.154589 -0.719288 
0.381654 0.109503 0.41612 
0.0450967 -0.298204 -0.708565 
0.412743 -0.257569 -0.600641 
0.465707 0.720043 -0.152802 
-0.555573 0.192959 0.0937061 
0.68756 -0.10632 -0.185456 
0.316563 0.550233 0.346877 
0.531595 0.0436516 -0.477505 
0.309607 0.284464 0.350235 
-0.918465 -0.447908 0.217526 
0.566014 -0.194188 0.680764 
0.375598 -0.0573654 0.556515 
-0.0957389 0.61882 -0.453924 
0.341727 -0.325702 -0.598758 
0.611574 -0.303165 0.723541 
0.224059 0.884357 -0.327399 
0.375771 0.578009 0.298674 
0.096163 -0.422142 0.517251 
0.216633 0.733404 0.414007 
0.494339 -0.105431 -0.567003 
-0.834291 -0.636434 -0.171322 
0.438619 -0.0341101 0.534638 
-0.336144 0.527909 0.148206 
0.286569 -0.584662 -0.287712 
-0.115248 0.506689 0.382681 
-0.280031 0.792171 -0.203489 
-0.074389 0.203092 -0.677051 
-0.437953 -0.502319 0.218594 
-0.456322 -0.307814 0.318391 
0.261901 0.152376 -0.710168 
-0.778426 -0.115355 -0.457155 
-0.454068 -0.597752 0.0973498 
0.623546 -0.341346 0.728415 
0.484348 0.74652 -0.0231822 
-1.09177 -0.258077 -0.148914 
-0.731976 -0.341432 -0.500951 
0.352102 -0.609782 0.680114 
0.260169 0.878718 -0.311967 
0.819517 -0.250239 0.0924316 
0.472441 0.668498 -0.181099 
0.497186 0.42572 -0.310942 
0.511531 -0.0169885 -0.532584 
-0.142916 0.110319 -0.688238 
-0.308972 -0.56416 -0.394504 
0.46057 0.754632 -0.133511 
-0.47682 -0.21181 0.334765 
-0.087749 1.05487 -0.142907 
0.20593 -0.173586 0.587496 
0.889918 -0.453157 0.468783 
-0.146596 -0.524803 -0.45524 
0.105565 1.10012 0.208453 
0.447303 -0.77999 0.141508 
-0.3321 0.754807 -0.135407 
0.0975959 -0.547281 0.451304 
0.600087 -0.0171223 -0.358452 
0.893867 -0.361021 0.302701 
0.250215 0.566468 0.387787 
0.382522 0.997852 0.0227449 
-0.352397 0.645362 0.0795228 
0.400445 0.59351 0.270786 
0.141893 1.10169 0.191356 
-0.583786 0.0494197 0.232052 
0.174268 -0.72431 0.317758 
0.840608 -0.275992 0.141825 
0.426269 0.907007 -0.0427916 
-0.467486 -0.251472 0.330496 
-0.427472 0.320151 0.0923899 
-0.618788 -0.0252136 -0.506769 
-0.406471 0.354029 0.0984905 
-0.308504 0.645572 0.191654 
-0.864963 -0.458421 0.243695 
-0.623694 0.105688 0.161411 
-0.102477 0.807151 -0.345415 
0.901594 -0.423916 0.417469 
-0.599686 0.0736424 0.205321 
0.172299 -0.214512 0.58432 
-0.478029 -0.443914 0.269189 
0.102023 1.03049 0.321715 
-0.527018 -0.449772 0.273237 
-0.686419 0.165499 0.0279103 
-0.503717 -0.121094 0.328584 
0.62306 -0.596181 0.691742 
0.829561 -0.165409 0.255415 
0.356218 -0.647937 -0.153425 
0.159163 -0.459427 -0.527042 
-0.0217994 1.06311 0.25312 
0.371579 -0.300093 -0.601019 
-0.287794 0.738012 0.226281 
-0.486125 0.249865 0.0871509 
0.767206 -0.191251 -0.0212268 
0.193906 -0.496011 -0.463397 
-0.347144 0.737716 -0.103236 
0.0169319 -0.235561 -0.738164 
-1.0413 -0.227454 0.128673 
0.633175 -0.697108 0.0844249 
-0.080748 0.296833 -0.630652 
-0.403562 -0.43499 0.26301 
0.762932 -0.561655 0.0849871 
-0.752659 0.172462 -0.157178 
-0.698124 -0.435086 -0.477061 
-0.0598403 0.0729155 -0.72699 
-0.778842 0.116368 -0.27652 
-0.168567 0.960589 0.275565 
0.282918 0.389451 0.352613 
0.792534 -0.534676 0.603177 
-0.438075 -0.468368 0.24489 
0.390886 -0.787998 0.167763 
0.167236 0.888763 -0.342815 
-1.03149 -0.186912 -0.269545 
-1.07171 -0.356573 0.0318812 
0.530814 -0.0125077 0.496167 
0.855731 -0.492298 0.534993 
-0.340768 0.05585 -0.616191 
-1.03931 -0.459488 0.0152225 
-1.0061 -0.41298 0.142654 
0.378842 -0.668359 -0.109711 
-0.770753 -0.170163 -0.478096 
-0.771515 0.142061 -0.235271 
0.883937 -0.340081 0.263508 
-0.687735 -0.464182 0.277807 
0.697084 -0.0243148 0.400342 
0.856839 -0.297657 0.18318 
0.493939 0.460463 -0.292503 
0.346044 1.0384 0.0603307 
-0.0317466 -0.0753208 -0.754657 
0.405412 0.0653835 0.446899 
